<?xml version="1.0" encoding="UTF-8"?>
<svg version="1.1" xmlns="http://www.w3.org/2000/svg" width="273" height="273">
<path d="M0 0 C42.0304081 0.89608434 83.98544752 18.84991017 119 41 C119.85078125 41.50789063 120.7015625 42.01578125 121.578125 42.5390625 C123.41838405 43.63935724 125.21599377 44.81066251 127 46 C127 46.66 127 47.32 127 48 C129.97 48.99 129.97 48.99 133 50 C133 50.66 133 51.32 133 52 C133.51304687 52.21914062 134.02609375 52.43828125 134.5546875 52.6640625 C138.02037281 54.55745607 141.02170298 56.94355079 144.125 59.375 C145.07439453 60.09816406 145.07439453 60.09816406 146.04296875 60.8359375 C149.22209446 63.31984039 151.45687923 65.17271176 153 69 C154.93330603 70.09166275 154.93330603 70.09166275 157 71 C158.75 72.625 158.75 72.625 160 74 C158.69799766 77.90600702 157.16377189 78.3718543 153.6875 80.5 C148.19148156 84.0279831 143.51736472 87.95177175 138.8347168 92.49414062 C135.18815196 96 135.18815196 96 133 96 C132.5978125 96.8971875 132.5978125 96.8971875 132.1875 97.8125 C130.12844037 101.60550459 130.12844037 101.60550459 128 103 C123.1774463 102.57119803 119.025013 101.42044872 114.5 99.75 C68.63976207 83.82654966 15.99950334 85.54433191 -30.47412109 97.38330078 C-32.97207505 97.99318206 -35.47532122 98.51389582 -38 99 C-39.69828043 93.87351372 -38.21445649 89.42950452 -36.9375 84.375 C-36.59404541 82.9842627 -36.59404541 82.9842627 -36.24365234 81.56542969 C-32.01033886 64.78632205 -27.18919347 46.81790171 -18 32 C-17.5875 31.01 -17.175 30.02 -16.75 29 C-12.78030128 19.48926349 -7.35308155 7.35308155 0 0 Z " fill="#0194D9" transform="translate(46,13)"/>
<path d="M0 0 C0.91152832 0.06614502 1.82305664 0.13229004 2.76220703 0.20043945 C9.31894097 0.7647633 15.39608369 2.21420072 21.6875 4.125 C20.22002117 7.91410254 18.50217328 11.22082071 16.375 14.6875 C13.28539359 19.8711016 10.93345868 25.07774466 8.828125 30.7265625 C7.6875 33.125 7.6875 33.125 4.6875 35.125 C2.36838591 35.60802798 0.03066588 36.00345356 -2.3125 36.3515625 C-3.75862473 36.57562231 -5.20458178 36.80076632 -6.65039062 37.02685547 C-7.4106958 37.14397888 -8.17100098 37.26110229 -8.9543457 37.3817749 C-31.73090148 40.93832737 -53.37557689 46.67041826 -74.41894531 56.26269531 C-76.09134 57.02428609 -77.77535964 57.76023682 -79.4609375 58.4921875 C-91.56561168 63.673845 -91.56561168 63.673845 -102.44140625 70.8984375 C-104.3125 72.125 -104.3125 72.125 -106.5625 71.8125 C-107.14 71.585625 -107.7175 71.35875 -108.3125 71.125 C-107.85669262 54.14617502 -104.81107385 37.70097162 -101.25 21.125 C-101.02509888 20.0587439 -101.02509888 20.0587439 -100.7956543 18.97094727 C-99.76545128 14.3750389 -98.7944733 10.14461014 -96.3125 6.125 C-93.33933629 4.54896878 -90.28719359 3.94616155 -87 3.3125 C-85.6073291 3.01424316 -85.6073291 3.01424316 -84.18652344 2.70996094 C-74.80846994 0.81168425 -65.37071545 -0.09291369 -55.83300781 -0.70751953 C-53.54927437 -0.85926703 -51.27202077 -1.04518278 -48.9921875 -1.24609375 C-32.68047888 -2.58686233 -16.28009293 -1.27936023 0 0 Z " fill="#0394D8" transform="translate(143.3125,121.875)"/>
<path d="M0 0 C-0.05768555 0.57250488 -0.11537109 1.14500977 -0.17480469 1.73486328 C-0.25633789 2.54681152 -0.33787109 3.35875977 -0.421875 4.1953125 C-0.51404297 5.10958008 -0.60621094 6.02384766 -0.70117188 6.96582031 C-0.90262805 9.01132464 -1.09647728 11.05759063 -1.28320312 13.10449219 C-1.58357675 16.36384438 -1.9151655 19.61902315 -2.25 22.875 C-2.34667969 23.98875 -2.44335938 25.1025 -2.54296875 26.25 C-3.412933 34.36314971 -3.412933 34.36314971 -6.44140625 37.6484375 C-7.28574219 38.09445313 -8.13007813 38.54046875 -9 39 C-14.62664695 42.66386313 -19.79114926 46.76301339 -25 51 C-25.85658203 51.66708984 -25.85658203 51.66708984 -26.73046875 52.34765625 C-33.77905428 57.92227483 -38.98591714 65.1496739 -44.15625 72.41796875 C-45.21318078 73.89811969 -46.28683256 75.36730503 -47.40625 76.80078125 C-51.66178552 82.29751463 -54.22761753 88.6644868 -57 95 C-58.87109375 94.83984375 -58.87109375 94.83984375 -61 94 C-63.04490647 89.93084267 -63.95551819 85.41871119 -65 81 C-65.45439453 79.07800781 -65.45439453 79.07800781 -65.91796875 77.1171875 C-67.89977645 67.6615848 -68.3064332 58.27069843 -68.375 48.625 C-68.39578613 46.87884399 -68.39578613 46.87884399 -68.41699219 45.09741211 C-68.37655834 37.61555512 -67.98119596 29.96363441 -65 23 C-61.95937802 20.42660675 -58.72596956 19.34890643 -55 18 C-53.57928087 17.3908769 -52.16290944 16.77155654 -50.75 16.14453125 C-40.70281501 11.71374583 -30.52432986 7.94818946 -20.05419922 4.64941406 C-18.08496022 4.0268593 -16.12224936 3.38685334 -14.16015625 2.7421875 C-9.23438557 1.15751887 -5.18894747 -0.09237837 0 0 Z " fill="#0594D8" transform="translate(146,168)"/>
<path d="M0 0 C3.57528648 0.6025998 4.56607868 1.00509626 7.375 3.5078125 C9.17802294 6.64297962 10.46131215 9.71451895 11.6875 13.11328125 C12.50911586 14.65194369 13.36060911 16.17527515 14.25 17.67578125 C16.60884769 21.94973301 18.93518478 26.24143366 21.2578125 30.53515625 C22.2398448 32.30603417 23.28037208 34.04533132 24.3671875 35.75390625 C25.6875 38.11328125 25.6875 38.11328125 25.6875 41.11328125 C26.3475 41.11328125 27.0075 41.11328125 27.6875 41.11328125 C28.07679688 41.86609375 28.46609375 42.61890625 28.8671875 43.39453125 C32.71932027 50.70825798 36.85212572 57.73492092 41.39794922 64.64257812 C41.81061035 65.28259766 42.22327148 65.92261719 42.6484375 66.58203125 C43.20217041 67.42411133 43.20217041 67.42411133 43.76708984 68.28320312 C44.6875 70.11328125 44.6875 70.11328125 45.6875 75.11328125 C38.7575 75.11328125 31.8275 75.11328125 24.6875 75.11328125 C16.18003731 60.36701259 16.18003731 60.36701259 12.6875 53.11328125 C11.6975 51.13328125 11.6975 51.13328125 10.6875 49.11328125 C-0.5325 48.78328125 -11.7525 48.45328125 -23.3125 48.11328125 C-23.9725 49.76328125 -24.6325 51.41328125 -25.3125 53.11328125 C-26.54908434 55.78649551 -27.87131668 58.41596818 -29.1875 61.05078125 C-29.52652344 61.74107422 -29.86554688 62.43136719 -30.21484375 63.14257812 C-30.89354888 64.50385933 -31.58931329 65.85678267 -32.30273438 67.20019531 C-33.23833718 68.97277355 -34.10299352 70.78230904 -34.9609375 72.59375 C-37.63240663 75.45603835 -38.13385616 75.5133509 -41.859375 75.69921875 C-43.59471968 75.65947803 -45.32957338 75.58811011 -47.0625 75.48828125 C-47.95066406 75.46121094 -48.83882812 75.43414062 -49.75390625 75.40625 C-51.94258395 75.33564749 -54.12629568 75.23713652 -56.3125 75.11328125 C-52.74999854 66.77230779 -48.45581273 59.05795055 -43.875 51.23828125 C-39.44019636 43.66336609 -35.15340541 36.00847571 -31.3125 28.11328125 C-30.6525 28.11328125 -29.9925 28.11328125 -29.3125 28.11328125 C-29.10625 27.35015625 -28.9 26.58703125 -28.6875 25.80078125 C-27.12335898 21.60603942 -25.15486726 17.87698015 -22.8984375 14.015625 C-21.24576681 11.17933328 -21.24576681 11.17933328 -20.2890625 8.1796875 C-16.63867544 -0.94628016 -8.79233939 -0.73506132 0 0 Z M-6.3125 18.11328125 C-9.93016341 23.29859881 -12.96211105 28.23730886 -15.3125 34.11328125 C-9.3725 34.11328125 -3.4325 34.11328125 2.6875 34.11328125 C0.0475 28.83328125 -2.5925 23.55328125 -5.3125 18.11328125 C-5.6425 18.11328125 -5.9725 18.11328125 -6.3125 18.11328125 Z " fill="#5E5D5F" transform="translate(226.3125,113.88671875)"/>
<path d="M0 0 C2.44895167 -0.01159016 4.89787674 -0.03215078 7.34667969 -0.06152344 C32.06408181 -0.3563665 32.06408181 -0.3563665 42.25268555 3.37011719 C45.79811615 4.60312651 49.19667524 4.85883999 52.92431641 5.02172852 C54.91259766 5.29516602 54.91259766 5.29516602 57.91259766 7.29516602 C57.91259766 7.95516602 57.91259766 8.61516602 57.91259766 9.29516602 C53.13745025 8.65318077 48.44561252 7.81768643 43.72509766 6.85766602 C10.18327469 0.52557312 -27.48200928 0.57035333 -60.68115234 8.74438477 C-63.08740234 9.29516602 -63.08740234 9.29516602 -66.08740234 9.29516602 C-65.75740234 7.97516602 -65.42740234 6.65516602 -65.08740234 5.29516602 C-57.43482511 3.91957185 -49.8419204 2.87522839 -42.08740234 2.29516602 C-42.08740234 1.96516602 -42.08740234 1.63516602 -42.08740234 1.29516602 C-28.06245056 0.31138478 -14.05730884 0.04622253 0 0 Z " fill="#56B1D8" transform="translate(88.08740234375,98.704833984375)"/>
<path d="M0 0 C0.33 0 0.66 0 1 0 C1.04898438 0.85464844 1.09796875 1.70929688 1.1484375 2.58984375 C1.22320312 3.69457031 1.29796875 4.79929688 1.375 5.9375 C1.44460937 7.03964844 1.51421875 8.14179688 1.5859375 9.27734375 C1.72257812 10.17582031 1.85921875 11.07429687 2 12 C2.66 12.33 3.32 12.66 4 13 C4.6875 14.9375 4.6875 14.9375 5 17 C4.67 17.66 4.34 18.32 4 19 C5.32 18.67 6.64 18.34 8 18 C8.66 18.99 9.32 19.98 10 21 C11.32 20.01 12.64 19.02 14 18 C14.66 18.33 15.32 18.66 16 19 C12.535 26.425 12.535 26.425 9 34 C7.68 33.67 6.36 33.34 5 33 C0.73469253 23.88395071 -1.64454963 12.09794414 -1 2 C-0.67 1.34 -0.34 0.68 0 0 Z " fill="#0690CF" transform="translate(80,229)"/>
<path d="M0 0 C10.81614853 0.81776872 21.41109688 2.97595066 32.05078125 5.01953125 C28.75627052 6.79496672 26.9794391 7.19603298 23.23828125 6.70703125 C22.35269531 6.59617187 21.46710938 6.4853125 20.5546875 6.37109375 C19.72839844 6.25507813 18.90210938 6.1390625 18.05078125 6.01953125 C16.93703125 5.87515625 15.82328125 5.73078125 14.67578125 5.58203125 C9.45991489 4.77267268 4.25510811 3.8997376 -0.94921875 3.01953125 C-1.27921875 4.66953125 -1.60921875 6.31953125 -1.94921875 8.01953125 C-2.60921875 8.01953125 -3.26921875 8.01953125 -3.94921875 8.01953125 C-4.21734375 8.55578125 -4.48546875 9.09203125 -4.76171875 9.64453125 C-6.15755208 12.43619792 -7.55338542 15.22786458 -8.94921875 18.01953125 C-9.60921875 18.01953125 -10.26921875 18.01953125 -10.94921875 18.01953125 C-11.93921875 20.49453125 -11.93921875 20.49453125 -12.94921875 23.01953125 C-13.60921875 22.68953125 -14.26921875 22.35953125 -14.94921875 22.01953125 C-4.60600134 0.04615232 -4.60600134 0.04615232 0 0 Z " fill="#41A1CC" transform="translate(47.94921875,12.98046875)"/>
<path d="M0 0 C0.66 0 1.32 0 2 0 C2.33 2.31 2.66 4.62 3 7 C2.360625 7.226875 1.72125 7.45375 1.0625 7.6875 C-1.21611948 8.80749096 -1.21611948 8.80749096 -1.5625 11.1875 C-1.706875 12.115625 -1.85125 13.04375 -2 14 C-2.72106747 15.68593427 -3.44404921 17.37111169 -4.18237305 19.04956055 C-5.52007807 22.24064011 -6.56392693 25.52120853 -7.625 28.8125 C-9.88119835 35.76239669 -9.88119835 35.76239669 -11 38 C-11.66 38 -12.32 38 -13 38 C-13.33 38.66 -13.66 39.32 -14 40 C-7.36170213 7.36170213 -7.36170213 7.36170213 0 0 Z " fill="#399FCE" transform="translate(26,49)"/>
<path d="M0 0 C0 0.33 0 0.66 0 1 C-0.90129639 1.16081055 -1.80259277 1.32162109 -2.73120117 1.48730469 C-6.14126902 2.09973217 -9.54986189 2.71942449 -12.95776367 3.34375 C-14.42046747 3.61024941 -15.88367242 3.87401579 -17.34741211 4.13476562 C-25.95841717 5.67086258 -34.17247589 7.46661592 -42.4543457 10.33691406 C-45 11 -45 11 -48 10 C-47.34 8.68 -46.68 7.36 -46 6 C-45.195625 6.061875 -44.39125 6.12375 -43.5625 6.1875 C-40.50857578 6.02676715 -38.94128893 5.71615267 -36.1875 4.6875 C-24.50926702 0.55883178 -12.29582166 -0.52612866 0 0 Z " fill="#2D96C9" transform="translate(141,157)"/>
<path d="M0 0 C1.32 0.66 2.64 1.32 4 2 C1.15421516 4.93471562 -1.75691765 7.66758968 -4.875 10.3125 C-11.69094774 16.24773539 -16.92907156 23.10458267 -22.10546875 30.484375 C-23.91265399 32.88401891 -25.82401065 34.93498128 -28 37 C-28 35.02 -28 33.04 -28 31 C-27.01 31 -26.02 31 -25 31 C-24.34 29.35 -23.68 27.7 -23 26 C-22.34 26 -21.68 26 -21 26 C-20.34 24.35 -19.68 22.7 -19 21 C-18.34 21 -17.68 21 -17 21 C-16.67 19.35 -16.34 17.7 -16 16 C-15.01 16 -14.02 16 -13 16 C-12.67 15.01 -12.34 14.02 -12 13 C-11.34 13 -10.68 13 -10 13 C-10 11.68 -10 10.36 -10 9 C-8.68 9 -7.36 9 -6 9 C-6 8.01 -6 7.02 -6 6 C-3 4 -3 4 0 4 C0 2.68 0 1.36 0 0 Z " fill="#38A1CD" transform="translate(124,210)"/>
<path d="M0 0 C0.33 0 0.66 0 1 0 C1 6.93 1 13.86 1 21 C1.99 21 2.98 21 4 21 C4 20.01 4 19.02 4 18 C6.64 18 9.28 18 12 18 C11.01 18.66 10.02 19.32 9 20 C8.16662109 20.65548828 8.16662109 20.65548828 7.31640625 21.32421875 C6.73761719 21.77410156 6.15882812 22.22398437 5.5625 22.6875 C4.98628906 23.14511719 4.41007812 23.60273438 3.81640625 24.07421875 C2 25 2 25 -0.22265625 24.64453125 C-0.80917969 24.43183594 -1.39570312 24.21914062 -2 24 C-1.85790331 21.3122562 -1.7114277 18.62486698 -1.5625 15.9375 C-1.52318359 15.18533203 -1.48386719 14.43316406 -1.44335938 13.65820312 C-1.18419281 9.05301259 -0.7200579 4.55633276 0 0 Z " fill="#64B1D2" transform="translate(37,169)"/>
<path d="M0 0 C4.55699068 1.30109941 8.86753229 1.93821602 13.59375 2.19140625 C15.6875 2.5 15.6875 2.5 18.6875 4.5 C18.6875 5.16 18.6875 5.82 18.6875 6.5 C13.50720092 5.79885571 8.38398064 4.91920353 3.25 3.9375 C2.51845703 3.79892578 1.78691406 3.66035156 1.03320312 3.51757812 C-0.74896318 3.1797819 -2.53077002 2.84009012 -4.3125 2.5 C-4.3125 1.84 -4.3125 1.18 -4.3125 0.5 C-8.2725 0.17 -12.2325 -0.16 -16.3125 -0.5 C-10.35930428 -3.47659786 -6.11912505 -1.7544949 0 0 Z " fill="#198DC5" transform="translate(127.3125,101.5)"/>
<path d="M0 0 C0 0.99 0 1.98 0 3 C-4.68684801 4.26798493 -9.03294937 3.91105063 -13.8125 3.5625 C-14.99489258 3.48418945 -14.99489258 3.48418945 -16.20117188 3.40429688 C-18.13451529 3.27540731 -20.06732164 3.13850506 -22 3 C-22.33 3.66 -22.66 4.32 -23 5 C-29.15234375 4.4140625 -29.15234375 4.4140625 -31 4 C-31.33 3.34 -31.66 2.68 -32 2 C-27.97954457 1.66200308 -23.95858312 1.33043881 -19.9375 1 C-18.2369043 0.85691406 -18.2369043 0.85691406 -16.50195312 0.7109375 C-10.98316765 0.2604244 -5.53752411 -0.12859272 0 0 Z " fill="#258DC3" transform="translate(114,120)"/>
<path d="M0 0 C0 0.33 0 0.66 0 1 C-5.37514905 1.04935509 -10.75016685 1.08569802 -16.12548828 1.10986328 C-17.95493873 1.11993484 -19.78437303 1.13359276 -21.61376953 1.15087891 C-24.23994934 1.17507677 -26.86591675 1.18647132 -29.4921875 1.1953125 C-30.72350906 1.21079636 -30.72350906 1.21079636 -31.97970581 1.22659302 C-33.98789142 1.22699184 -35.99555382 1.1224954 -38 1 C-38.66 0.34 -39.32 -0.32 -40 -1 C-11.84846857 -2.60666308 -11.84846857 -2.60666308 0 0 Z " fill="#1288BE" transform="translate(110,99)"/>
<path d="M0 0 C6.99391283 0.59683631 13.32249851 2.45227581 20 4.5625 C21.06089844 4.89185547 22.12179688 5.22121094 23.21484375 5.56054688 C25.81182844 6.36771779 28.40673007 7.18098869 31 8 C31 8.33 31 8.66 31 9 C28.36 9 25.72 9 23 9 C23 8.34 23 7.68 23 7 C22.01 6.89042969 21.02 6.78085937 20 6.66796875 C12.98390969 5.84233747 6.50322497 4.91981529 0 2 C0 1.34 0 0.68 0 0 Z " fill="#3B9DCA" transform="translate(80,19)"/>
<path d="M0 0 C0.33 0 0.66 0 1 0 C1.24942611 6.60979186 0.29784478 12.5107761 -1 19 C2.96 19 6.92 19 11 19 C11 19.33 11 19.66 11 20 C6.38 20.99 1.76 21.98 -3 23 C-4.125 17.375 -4.125 17.375 -3.22265625 13.57421875 C-3.03896484 12.77822266 -2.85527344 11.98222656 -2.66601562 11.16210938 C-2.46685547 10.34548828 -2.26769531 9.52886719 -2.0625 8.6875 C-1.86720703 7.85154297 -1.67191406 7.01558594 -1.47070312 6.15429688 C-0.9895769 4.10070934 -0.49601245 2.05004289 0 0 Z " fill="#51A6CD" transform="translate(11,89)"/>
<path d="M0 0 C-3.45627381 1.33871641 -6.91534297 2.67005392 -10.375 4 C-11.35984375 4.3815625 -12.3446875 4.763125 -13.359375 5.15625 C-14.30039063 5.5171875 -15.24140625 5.878125 -16.2109375 6.25 C-17.51490479 6.75273437 -17.51490479 6.75273437 -18.84521484 7.265625 C-21 8 -21 8 -23 8 C-23.33 7.01 -23.66 6.02 -24 5 C-23.0925 4.731875 -22.185 4.46375 -21.25 4.1875 C-18.06811997 3.22337949 -18.06811997 3.22337949 -16.109375 1.47265625 C-13.62042025 -0.2650029 -12.00390722 -0.5118854 -9 -0.75 C-8.154375 -0.82734375 -7.30875 -0.9046875 -6.4375 -0.984375 C-4.07432721 -0.99952354 -2.26439753 -0.61397248 0 0 Z " fill="#3DA4CF" transform="translate(92,169)"/>
<path d="M0 0 C0.33 0 0.66 0 1 0 C0.56039753 6.88205246 -0.36190082 13.64179398 -1.5 20.4375 C-1.63059814 21.21851074 -1.76119629 21.99952148 -1.89575195 22.80419922 C-2.48382322 26.24324299 -3.12315491 29.62104168 -4 33 C-4.66 33 -5.32 33 -6 33 C-5.43540013 26.075294 -4.4121806 19.36245657 -3 12.5625 C-2.82210937 11.67884766 -2.64421875 10.79519531 -2.4609375 9.88476562 C-1.77308372 6.50966219 -1.09054794 3.27164382 0 0 Z " fill="#53A9CD" transform="translate(44,135)"/>
<path d="M0 0 C0.33 0 0.66 0 1 0 C1.23790362 2.85484344 1.42526458 5.20079011 1 8 C-1.125 10.25 -1.125 10.25 -4 12 C-5.03125 12.7425 -6.0625 13.485 -7.125 14.25 C-10 16 -10 16 -13 16 C-12.67 14.68 -12.34 13.36 -12 12 C-11.34 12.33 -10.68 12.66 -10 13 C-10 12.01 -10 11.02 -10 10 C-8.68 10 -7.36 10 -6 10 C-5.67 9.01 -5.34 8.02 -5 7 C-3.68 7.33 -2.36 7.66 -1 8 C-0.67 5.36 -0.34 2.72 0 0 Z " fill="#32A0CC" transform="translate(141,195)"/>
<path d="M0 0 C0 0.66 0 1.32 0 2 C-2.64 2 -5.28 2 -8 2 C-8 2.66 -8 3.32 -8 4 C-14.5 7 -14.5 7 -19 7 C-19 7.66 -19 8.32 -19 9 C-19.66 9 -20.32 9 -21 9 C-21.33 9.66 -21.66 10.32 -22 11 C-21.67 9.02 -21.34 7.04 -21 5 C-6.6 0 -6.6 0 0 0 Z " fill="#46A3D1" transform="translate(67,124)"/>
<path d="M0 0 C0.66 0.33 1.32 0.66 2 1 C-0.625 5.875 -0.625 5.875 -4 7 C-3.938125 8.918125 -3.938125 8.918125 -3.875 10.875 C-3.8046875 13.0546875 -3.8046875 13.0546875 -4 15 C-4.66 15.66 -5.32 16.32 -6 17 C-7.27807583 14.44384834 -6.99968789 12.89645757 -6.75 10.0625 C-6.68296875 9.18722656 -6.6159375 8.31195313 -6.546875 7.41015625 C-5.63635021 3.39734342 -3.33770174 2.22513449 0 0 Z " fill="#2993C8" transform="translate(86,188)"/>
<path d="M0 0 C0.33 0 0.66 0 1 0 C1.04898438 0.85464844 1.09796875 1.70929688 1.1484375 2.58984375 C1.22320312 3.69457031 1.29796875 4.79929688 1.375 5.9375 C1.44460937 7.03964844 1.51421875 8.14179688 1.5859375 9.27734375 C1.72257812 10.17582031 1.85921875 11.07429687 2 12 C2.66 12.33 3.32 12.66 4 13 C4 17.62 4 22.24 4 27 C1.68119578 23.52179367 1.18192851 20.8416981 0.375 16.75 C0.11460938 15.46609375 -0.14578125 14.1821875 -0.4140625 12.859375 C-1.81521739 3.63043478 -1.81521739 3.63043478 0 0 Z " fill="#3FA1CB" transform="translate(80,229)"/>
<path d="M0 0 C18.34042553 -0.38297872 18.34042553 -0.38297872 27 2 C23.8134652 3.91192088 21.85014752 4.16623975 18.1875 3.6875 C17.30964844 3.57792969 16.43179688 3.46835937 15.52734375 3.35546875 C14.69332031 3.23816406 13.85929687 3.12085938 13 3 C11.14375 2.7525 11.14375 2.7525 9.25 2.5 C6.16202879 2.02492751 3.0797233 1.52580642 0 1 C0 0.67 0 0.34 0 0 Z " fill="#349BCA" transform="translate(53,16)"/>
<path d="M0 0 C4.84111765 0.58838199 8.96071195 2.07653116 13.375 4.0625 C14.01566406 4.34416016 14.65632812 4.62582031 15.31640625 4.91601562 C16.88029659 5.60459421 18.44053941 6.30144711 20 7 C20 7.33 20 7.66 20 8 C15.11591759 8.45788273 11.4263976 6.78722748 7 5 C6.01 4.67 5.02 4.34 4 4 C4 3.34 4 2.68 4 2 C2.68 1.67 1.36 1.34 0 1 C0 0.67 0 0.34 0 0 Z " fill="#4DA6CF" transform="translate(115,30)"/>
<path d="M0 0 C1.89646998 0.11493757 3.79218332 0.24239642 5.6875 0.375 C6.74324219 0.44460937 7.79898438 0.51421875 8.88671875 0.5859375 C11.90677269 0.98760089 14.24078054 1.74069019 17 3 C17 3.66 17 4.32 17 5 C19.475 5.495 19.475 5.495 22 6 C18.74004193 7.08557892 16.89457573 6.91310151 13.671875 5.78515625 C12.87265625 5.51123047 12.0734375 5.23730469 11.25 4.95507812 C10.425 4.66052734 9.6 4.36597656 8.75 4.0625 C7.90953125 3.77181641 7.0690625 3.48113281 6.203125 3.18164062 C4.13194269 2.46378767 2.06466738 1.73633881 0 1 C0 0.67 0 0.34 0 0 Z " fill="#52A4CF" transform="translate(152,109)"/>
<path d="M0 0 C0 0.66 0 1.32 0 2 C-2.31 2.33 -4.62 2.66 -7 3 C-7 3.66 -7 4.32 -7 5 C-10 7 -10 7 -14 7 C-14.33 7.66 -14.66 8.32 -15 9 C-16.32 8.34 -17.64 7.68 -19 7 C-16.72979898 6.01934513 -14.45887746 5.0404231 -12.1875 4.0625 C-11.54490234 3.78470703 -10.90230469 3.50691406 -10.24023438 3.22070312 C-2.75112952 0 -2.75112952 0 0 0 Z " fill="#4CA9D4" transform="translate(115,177)"/>
<path d="M0 0 C1.24523437 0.01804688 2.49046875 0.03609375 3.7734375 0.0546875 C5.18496094 0.08949219 5.18496094 0.08949219 6.625 0.125 C6.625 0.455 6.625 0.785 6.625 1.125 C3.89672635 1.63034727 1.16755306 2.12943845 -1.5625 2.625 C-2.33142578 2.76808594 -3.10035156 2.91117188 -3.89257812 3.05859375 C-7.76921773 3.75738715 -11.416471 4.31539017 -15.375 4.125 C-11.0899826 -0.1600174 -5.77533274 -0.10896854 0 0 Z " fill="#5FB2DB" transform="translate(134.375,156.875)"/>
<path d="M0 0 C4.62 0 9.24 0 14 0 C11.10528516 1.44735742 8.46756049 2.63646379 5.4375 3.6875 C4.67308594 3.95949219 3.90867187 4.23148438 3.12109375 4.51171875 C1 5 1 5 -2 4 C-1.34 2.68 -0.68 1.36 0 0 Z " fill="#40A9D8" transform="translate(95,163)"/>
<path d="M0 0 C5.28 0 10.56 0 16 0 C16 0.33 16 0.66 16 1 C13.73000175 1.50377768 11.45896997 2.00290019 9.1875 2.5 C7.29064453 2.91765625 7.29064453 2.91765625 5.35546875 3.34375 C2 4 2 4 -1 4 C-0.67 2.68 -0.34 1.36 0 0 Z " fill="#42A8D3" transform="translate(23,104)"/>
<path d="M0 0 C0.66 0 1.32 0 2 0 C0.45315734 3.32687768 -1.45954979 6.24703978 -3.5625 9.25 C-4.18253906 10.14203125 -4.80257812 11.0340625 -5.44140625 11.953125 C-6.21291016 12.96632812 -6.21291016 12.96632812 -7 14 C-7.33 14 -7.66 14 -8 14 C-8 12.02 -8 10.04 -8 8 C-7.01 8 -6.02 8 -5 8 C-4.34 6.35 -3.68 4.7 -3 3 C-2.34 3 -1.68 3 -1 3 C-0.67 2.01 -0.34 1.02 0 0 Z " fill="#51ABD0" transform="translate(104,233)"/>
<path d="M0 0 C0.33 0 0.66 0 1 0 C0.56179109 4.55737263 0.14958831 7.57653445 -3 11 C-3.99 9.35 -4.98 7.7 -6 6 C-4 4 -2 2 0 0 Z " fill="#6F6F71" transform="translate(198,167)"/>
<path d="M0 0 C2.27057377 -0.05398987 4.54151288 -0.09278742 6.8125 -0.125 C8.07707031 -0.14820312 9.34164062 -0.17140625 10.64453125 -0.1953125 C14 0 14 0 17 2 C17 2.66 17 3.32 17 4 C11.27601207 3.25339288 5.65146223 2.17122859 0 1 C0 0.67 0 0.34 0 0 Z " fill="#55AED4" transform="translate(129,104)"/>
<path d="M0 0 C0.66 0.33 1.32 0.66 2 1 C0.02 4.96 -1.96 8.92 -4 13 C-4.33 13 -4.66 13 -5 13 C-5 11.02 -5 9.04 -5 7 C-4.34 7 -3.68 7 -3 7 C-3.061875 6.21625 -3.12375 5.4325 -3.1875 4.625 C-3.125625 3.75875 -3.06375 2.8925 -3 2 C-2.01 1.34 -1.02 0.68 0 0 Z " fill="#3A9DC8" transform="translate(94,247)"/>
<path d="M0 0 C1.125 3.75 1.125 3.75 0 6 C-5.61 6 -11.22 6 -17 6 C-16.34 5.34 -15.68 4.68 -15 4 C-12.3984375 4.0234375 -12.3984375 4.0234375 -9.375 4.375 C-8.37210938 4.48585937 -7.36921875 4.59671875 -6.3359375 4.7109375 C-5.17964844 4.85402344 -5.17964844 4.85402344 -4 5 C-4 4.01 -4 3.02 -4 2 C-2.68 2.33 -1.36 2.66 0 3 C0 2.01 0 1.02 0 0 Z " fill="#525253" transform="translate(189,182)"/>
<path d="M0 0 C0.66 0 1.32 0 2 0 C1.34 6.6 0.68 13.2 0 20 C-0.33 20 -0.66 20 -1 20 C-1.02888514 16.85418577 -1.04675923 13.70840531 -1.0625 10.5625 C-1.07087891 9.66466797 -1.07925781 8.76683594 -1.08789062 7.84179688 C-1.09111328 6.98779297 -1.09433594 6.13378906 -1.09765625 5.25390625 C-1.10551147 4.06776733 -1.10551147 4.06776733 -1.11352539 2.85766602 C-1 1 -1 1 0 0 Z " fill="#4EB0D8" transform="translate(143,174)"/>
<path d="M0 0 C0 3.72207387 -1.17964568 5.46395589 -3 8.6875 C-3.8353125 10.17830078 -3.8353125 10.17830078 -4.6875 11.69921875 C-5.3371875 12.83810547 -5.3371875 12.83810547 -6 14 C-6.5534764 11.92446352 -7 10.15634036 -7 8 C-6.34 8 -5.68 8 -5 8 C-4.9175 7.4225 -4.835 6.845 -4.75 6.25 C-3.79468987 3.3840696 -2.21530827 2.0009236 0 0 Z " fill="#4FAAD1" transform="translate(162,129)"/>
<path d="M0 0 C0.66 0 1.32 0 2 0 C1.42110619 3.28754511 0.45171589 4.93672495 -1.9375 7.25 C-2.46214844 7.77078125 -2.98679687 8.2915625 -3.52734375 8.828125 C-5 10 -5 10 -7 10 C-7 9.34 -7 8.68 -7 8 C-6.34 8 -5.68 8 -5 8 C-4.67 6.35 -4.34 4.7 -4 3 C-3.01 3 -2.02 3 -1 3 C-0.67 2.01 -0.34 1.02 0 0 Z " fill="#44A5D1" transform="translate(112,223)"/>
<path d="M0 0 C2.475 0.99 2.475 0.99 5 2 C5 2.66 5 3.32 5 4 C5.5775 4.2475 6.155 4.495 6.75 4.75 C9.3002997 6.16683317 11.01785701 7.87627537 13 10 C12.01 10 11.02 10 10 10 C10 9.34 10 8.68 10 8 C9.0925 7.7525 8.185 7.505 7.25 7.25 C3.87503877 5.95193799 2.25897879 4.78028159 0 2 C0 1.34 0 0.68 0 0 Z " fill="#57ACD1" transform="translate(174,61)"/>
<path d="M0 0 C2.375 0.6875 2.375 0.6875 5 2 C6.3125 4.625 6.3125 4.625 7 7 C4.69 7 2.38 7 0 7 C0.66 6.67 1.32 6.34 2 6 C2 5.34 2 4.68 2 4 C1.34 3.67 0.68 3.34 0 3 C0 2.01 0 1.02 0 0 Z " fill="#525255" transform="translate(264,181)"/>
<path d="M0 0 C0.99 0.66 1.98 1.32 3 2 C2.01 3.485 2.01 3.485 1 5 C1 6.010625 1 7.02125 1 8.0625 C1 9.031875 1 10.00125 1 11 C0.34 11.66 -0.32 12.32 -1 13 C-2.51403812 8.15507803 -1.36602172 4.7408989 0 0 Z " fill="#0A8CC8" transform="translate(46,133)"/>
<path d="M0 0 C0.66 0.33 1.32 0.66 2 1 C-0.625 5.875 -0.625 5.875 -4 7 C-4.33 5.68 -4.66 4.36 -5 3 C-2.625 1.4375 -2.625 1.4375 0 0 Z " fill="#41A6D2" transform="translate(86,188)"/>
<path d="M0 0 C0.66 0 1.32 0 2 0 C0.375 5.75 0.375 5.75 -3 8 C-6.1875 8.125 -6.1875 8.125 -9 8 C-9 7.67 -9 7.34 -9 7 C-7.6078125 6.6596875 -7.6078125 6.6596875 -6.1875 6.3125 C-2.45530287 4.77571295 -1.8275845 3.47241055 0 0 Z " fill="#4CA4CA" transform="translate(151,149)"/>
<path d="M0 0 C2.64 0 5.28 0 8 0 C3.95865069 2.69423287 2.19010472 3.11848959 -2.625 3.0625 C-3.62789062 3.05347656 -4.63078125 3.04445313 -5.6640625 3.03515625 C-6.43492188 3.02355469 -7.20578125 3.01195313 -8 3 C-8 2.67 -8 2.34 -8 2 C-5.36 2 -2.72 2 0 2 C0 1.34 0 0.68 0 0 Z " fill="#158AC0" transform="translate(67,124)"/>
<path d="M0 0 C1.7074998 1.28062485 3.37373596 2.61767557 5 4 C5 4.66 5 5.32 5 6 C5.99 6.33 6.98 6.66 8 7 C6.68 7.33 5.36 7.66 4 8 C4 7.34 4 6.68 4 6 C2.68 5.34 1.36 4.68 0 4 C0 2.68 0 1.36 0 0 Z " fill="#57ABCE" transform="translate(194,76)"/>
<path d="M0 0 C4.23429756 1.31061591 8.07407404 2.94356259 12 5 C10.02 5.99 10.02 5.99 8 7 C8 6.34 8 5.68 8 5 C6.35 4.67 4.7 4.34 3 4 C3 3.34 3 2.68 3 2 C1.68 1.67 0.36 1.34 -1 1 C-0.67 0.67 -0.34 0.34 0 0 Z " fill="#48A9CC" transform="translate(135,38)"/>
<path d="M0 0 C0.99 0 1.98 0 3 0 C3 1.65 3 3.3 3 5 C2.01 5.33 1.02 5.66 0 6 C0 5.01 0 4.02 0 3 C-2.31 3 -4.62 3 -7 3 C-7 2.67 -7 2.34 -7 2 C-4.69 2 -2.38 2 0 2 C0 1.34 0 0.68 0 0 Z " fill="#1487BE" transform="translate(142,169)"/>
<path d="M0 0 C1.74627478 2.61941217 2.38722388 4.03824877 3 7 C1 7 -1 7 -3 7 C-1.125 2.25 -1.125 2.25 0 0 Z " fill="#717172" transform="translate(203,129)"/>
<path d="M0 0 C0.99 0.33 1.98 0.66 3 1 C2.67 2.98 2.34 4.96 2 7 C0.68 7.33 -0.64 7.66 -2 8 C-1.47731534 5.23723823 -0.89130413 2.6739124 0 0 Z " fill="#41A8D7" transform="translate(20,62)"/>
<path d="M0 0 C4.50802601 1.25805377 7.4912812 2.90407165 11 6 C10.01 6.33 9.02 6.66 8 7 C8 6.34 8 5.68 8 5 C6.8553125 4.814375 6.8553125 4.814375 5.6875 4.625 C3 4 3 4 0 2 C0 1.34 0 0.68 0 0 Z " fill="#4FAACE" transform="translate(153,48)"/>
<path d="M0 0 C0.33 0 0.66 0 1 0 C1.36717663 7.4659249 1.36717663 7.4659249 -0.375 10 C-2 11 -2 11 -4 11 C-4 10.01 -4 9.02 -4 8 C-3.01 8 -2.02 8 -1 8 C-0.67 5.36 -0.34 2.72 0 0 Z " fill="#4FA6C9" transform="translate(141,195)"/>
<path d="M0 0 C0.66 0 1.32 0 2 0 C1.67 3.3 1.34 6.6 1 10 C0.34 10 -0.32 10 -1 10 C-0.67 6.7 -0.34 3.4 0 0 Z " fill="#47A4D4" transform="translate(39,158)"/>
<path d="M0 0 C4.875 4.625 4.875 4.625 6 8 C5.01 8.33 4.02 8.66 3 9 C0 3.375 0 3.375 0 0 Z " fill="#818183" transform="translate(223,135)"/>
<path d="M0 0 C1.8871875 0.0309375 1.8871875 0.0309375 3.8125 0.0625 C3.8125 0.3925 3.8125 0.7225 3.8125 1.0625 C-0.69103262 2.81997614 -4.36389811 3.25544408 -9.1875 3.0625 C-6.30623588 0.18123588 -3.90053134 -0.06394314 0 0 Z " fill="#5DACD1" transform="translate(68.1875,98.9375)"/>
<path d="M0 0 C0.33 0 0.66 0 1 0 C2.125 7.75 2.125 7.75 1 10 C0.34 10 -0.32 10 -1 10 C-1.125 2.25 -1.125 2.25 0 0 Z " fill="#0E8CC8" transform="translate(13,87)"/>
<path d="M0 0 C0.99 0.33 1.98 0.66 3 1 C3.6875 3.0625 3.6875 3.0625 4 5 C2.68 5.99 1.36 6.98 0 8 C-0.66 7.67 -1.32 7.34 -2 7 C-1.67 6.34 -1.34 5.68 -1 5 C-0.34 5 0.32 5 1 5 C0.67 3.35 0.34 1.7 0 0 Z " fill="#58AAC8" transform="translate(202,84)"/>
<path d="M0 0 C0.66 0 1.32 0 2 0 C1.67 1.65 1.34 3.3 1 5 C0.34 5 -0.32 5 -1 5 C-1.33 6.32 -1.66 7.64 -2 9 C-2.66 9 -3.32 9 -4 9 C-3.34 7.02 -2.68 5.04 -2 3 C-1.34 3 -0.68 3 0 3 C0 2.01 0 1.02 0 0 Z " fill="#178DC1" transform="translate(31,40)"/>
<path d="M0 0 C5.445 1.485 5.445 1.485 11 3 C11 3.33 11 3.66 11 4 C8.36 4 5.72 4 3 4 C3 3.34 3 2.68 3 2 C2.01 2 1.02 2 0 2 C0 1.34 0 0.68 0 0 Z " fill="#51AFD6" transform="translate(100,24)"/>
<path d="M0 0 C2.64 0 5.28 0 8 0 C5.37352812 1.75098126 2.71224618 3.38731308 0 5 C0 3.35 0 1.7 0 0 Z " fill="#47A8D4" transform="translate(41,187)"/>
<path d="M0 0 C5.57142857 5.14285714 5.57142857 5.14285714 6 9 C5.34 8.67 4.68 8.34 4 8 C4 7.34 4 6.68 4 6 C2.68 5.34 1.36 4.68 0 4 C0 2.68 0 1.36 0 0 Z " fill="#838385" transform="translate(265,177)"/>
<path d="M0 0 C1.32 0 2.64 0 4 0 C4 1.32 4 2.64 4 4 C4.66 4.33 5.32 4.66 6 5 C4.68 5 3.36 5 2 5 C2 4.34 2 3.68 2 3 C1.01 2.67 0.02 2.34 -1 2 C-0.67 1.34 -0.34 0.68 0 0 Z " fill="#0D8DCD" transform="translate(144,103)"/>
<path d="M0 0 C1.32 0 2.64 0 4 0 C4 0.66 4 1.32 4 2 C3.01 2 2.02 2 1 2 C1 2.99 1 3.98 1 5 C0.34 5 -0.32 5 -1 5 C-1.33 5.66 -1.66 6.32 -2 7 C-1.125 1.125 -1.125 1.125 0 0 Z " fill="#5CABCB" transform="translate(47,128)"/>
<path d="M0 0 C1.98 0 3.96 0 6 0 C4.35 1.65 2.7 3.3 1 5 C0.67 3.35 0.34 1.7 0 0 Z " fill="#52AFD4" transform="translate(187,97)"/>
<path d="M0 0 C0.33 0.99 0.66 1.98 1 3 C3.01508358 3.73323796 3.01508358 3.73323796 5 4 C5 4.99 5 5.98 5 7 C3.68 6.67 2.36 6.34 1 6 C0.67 4.02 0.34 2.04 0 0 Z " fill="#5EB6D2" transform="translate(84,256)"/>
<path d="M0 0 C1.9453125 -0.29296875 1.9453125 -0.29296875 4.125 -0.1875 C5.40375 -0.125625 6.6825 -0.06375 8 0 C4.73454239 1.88391785 1.71888239 2.49287967 -2 3 C-1.34 2.01 -0.68 1.02 0 0 Z " fill="#5CAAD6" transform="translate(101,163)"/>
<path d="M0 0 C2.0625 2.3125 2.0625 2.3125 4 5 C3.67 5.99 3.34 6.98 3 8 C1.5 6.8125 1.5 6.8125 0 5 C-0.1875 2.3125 -0.1875 2.3125 0 0 Z " fill="#707073" transform="translate(247,145)"/>
</svg>
